<?xml version="1.0" encoding="UTF-8" standalone="no" ?>
<!DOCTYPE svg PUBLIC "-//W3C//DTD SVG 1.1//EN" "http://www.w3.org/Graphics/SVG/1.1/DTD/svg11.dtd">
<svg xmlns="http://www.w3.org/2000/svg" version="1.1" width="128" height="128" viewBox="0 0 64 64" xml:space="preserve">
<desc>Created with Fabric.js 4.6.0</desc>
	<defs>
</defs>
	<g transform="matrix(0.36 0 0 0.36 31.56 31.56)" id="AX77Zg0AJMZ7vKkjaUl4J">
<g style="" vector-effect="non-scaling-stroke">
		<g transform="matrix(-1 0 0 1 0 0)" id="2CUBc7dN26ecqbsmvvbYf">
<path style="stroke: none; stroke-width: 1; stroke-dasharray: none; stroke-linecap: butt; stroke-dashoffset: 0; stroke-linejoin: miter; stroke-miterlimit: 4; fill: rgb(255,255,255); fill-rule: nonzero; opacity: 1;"
	  vector-effect="non-scaling-stroke" transform=" translate(0, 0)"
	  d="M 0 -85.8 C 47.4 -85.8 85.8 -47.4 85.8 0 C 85.8 47.4 47.4 85.8 0 85.8 C -47.4 85.7 -85.8 47.3 -85.8 0 C -85.8 -47.4 -47.4 -85.8 0 -85.8 z M 38.5955 -34.9 C 31.2955 -38.199999999999996 23.695500000000003 -40.6 15.7955 -41.9 C 14.7955 -40.1 13.695500000000001 -37.8 12.8955 -35.9 C 4.4955 -37.199999999999996 -4.004499999999998 -37.199999999999996 -12.4045 -35.9 C -13.3045 -38 -14.3045 -40 -15.4045 -41.9 C -23.3045 -40.6 -31.0045 -38.199999999999996 -38.2045 -34.8 C -52.6045 -13.299999999999997 -56.50450000000001 7.600000000000001 -54.6045 28.300000000000004 C -46.1045 34.6 -36.7045 39.400000000000006 -26.6045 42.400000000000006 C -24.3045 39.300000000000004 -22.3045 32.67132000000001 -20.6045 29.271320000000006 C -4.651460000000002 34.65554000000001 12.916649999999997 33.69843000000001 28.295499999999997 26.400000000000006 C 29.095499999999998 27.000000000000007 29.795499999999997 27.600000000000005 30.595499999999998 28.200000000000006 C 27.595499999999998 30.000000000000007 24.3955 31.500000000000007 21.095499999999998 32.7 C 22.795499999999997 36.1 24.795499999999997 39.300000000000004 27.095499999999998 42.400000000000006 C 37.195499999999996 39.300000000000004 46.695499999999996 34.60000000000001 55.0955 28.300000000000004 C 57.295500000000004 4.300000000000004 51.0955 -16.499999999999993 38.5955 -34.9 z M -30.0045 28.2 C -29.2045 27.599999999999998 -28.5045 27 -27.7045 26.4 C -25.38335 27.501559999999998 -23.01232 31.887349999999998 -20.6045 32.699999999999996 C -23.904500000000002 31.499999999999996 -27.0045 29.999999999999996 -30.0045 28.199999999999996 z M -18.2045 15.5 C -23.7045 15.5 -28.1045 10.5 -28.1045 4.4 C -28.1045 -1.6999999999999993 -23.704500000000003 -6.799999999999999 -18.204500000000003 -6.799999999999999 C -12.604500000000003 -6.799999999999999 -8.204500000000003 -1.799999999999999 -8.204500000000003 4.4 C -8.304500000000003 10.5 -12.604500000000003 15.5 -18.204500000000003 15.5 z M 18.5955 15.5 C 13.095500000000001 15.5 8.695500000000001 10.5 8.695500000000001 4.4 C 8.695500000000001 -1.6999999999999993 13.095500000000001 -6.799999999999999 18.5955 -6.799999999999999 C 24.195500000000003 -6.799999999999999 28.5955 -1.799999999999999 28.4955 4.4 C 28.3955 10.600000000000001 24.0955 15.5 18.5955 15.5 z"
	  stroke-linecap="round"/>
</g>
	<g transform="matrix(1 0 0 1 0 0)" id="X-Jolhj97DfMxXV8ulNER">
<path style="stroke: none; stroke-width: 1; stroke-dasharray: none; stroke-linecap: butt; stroke-dashoffset: 0; stroke-linejoin: miter; stroke-miterlimit: 4; fill: rgb(255,255,255); fill-rule: nonzero; opacity: 1;"
	  vector-effect="non-scaling-stroke" transform=" translate(0, 0)"
	  d="M 0 -85.8 C 47.4 -85.8 85.8 -47.4 85.8 0 C 85.8 47.4 47.4 85.8 0 85.8 C -47.4 85.7 -85.8 47.3 -85.8 0 C -85.8 -47.4 -47.4 -85.8 0 -85.8 z M 38.5955 -34.9 C 31.2955 -38.199999999999996 23.695500000000003 -40.6 15.7955 -41.9 C 14.7955 -40.1 13.695500000000001 -37.8 12.8955 -35.9 C 4.4955 -37.199999999999996 -4.004499999999998 -37.199999999999996 -12.4045 -35.9 C -13.3045 -38 -14.3045 -40 -15.4045 -41.9 C -23.3045 -40.6 -31.0045 -38.199999999999996 -38.2045 -34.8 C -52.6045 -13.299999999999997 -56.50450000000001 7.600000000000001 -54.6045 28.300000000000004 C -46.1045 34.6 -36.7045 39.400000000000006 -26.6045 42.400000000000006 C -24.3045 39.300000000000004 -22.3045 32.67132000000001 -20.6045 29.271320000000006 C -4.651460000000002 34.65554000000001 12.916649999999997 33.69843000000001 28.295499999999997 26.400000000000006 C 29.095499999999998 27.000000000000007 29.795499999999997 27.600000000000005 30.595499999999998 28.200000000000006 C 27.595499999999998 30.000000000000007 24.3955 31.500000000000007 21.095499999999998 32.7 C 22.795499999999997 36.1 24.795499999999997 39.300000000000004 27.095499999999998 42.400000000000006 C 37.195499999999996 39.300000000000004 46.695499999999996 34.60000000000001 55.0955 28.300000000000004 C 57.295500000000004 4.300000000000004 51.0955 -16.499999999999993 38.5955 -34.9 z M -30.0045 28.2 C -29.2045 27.599999999999998 -28.5045 27 -27.7045 26.4 C -25.38335 27.501559999999998 -23.01232 31.887349999999998 -20.6045 32.699999999999996 C -23.904500000000002 31.499999999999996 -27.0045 29.999999999999996 -30.0045 28.199999999999996 z M -18.2045 15.5 C -23.7045 15.5 -28.1045 10.5 -28.1045 4.4 C -28.1045 -1.6999999999999993 -23.704500000000003 -6.799999999999999 -18.204500000000003 -6.799999999999999 C -12.604500000000003 -6.799999999999999 -8.204500000000003 -1.799999999999999 -8.204500000000003 4.4 C -8.304500000000003 10.5 -12.604500000000003 15.5 -18.204500000000003 15.5 z M 18.5955 15.5 C 13.095500000000001 15.5 8.695500000000001 10.5 8.695500000000001 4.4 C 8.695500000000001 -1.6999999999999993 13.095500000000001 -6.799999999999999 18.5955 -6.799999999999999 C 24.195500000000003 -6.799999999999999 28.5955 -1.799999999999999 28.4955 4.4 C 28.3955 10.600000000000001 24.0955 15.5 18.5955 15.5 z"
	  stroke-linecap="round"/>
</g>
</g>
</g>
</svg>
